<svg xmlns="http://www.w3.org/2000/svg" width="360" height="640" viewBox="0 0 360 640">
  <rect width="360" height="640" rx="28" fill="#ffffff"/>
  <rect x="24" y="24" width="312" height="60" rx="18" fill="#f7f5ff"/>
  <rect x="44" y="44" width="160" height="12" rx="6" fill="#d5ccff"/>
  <rect x="240" y="40" width="72" height="20" rx="10" fill="#8b5cf6"/>
  <rect x="24" y="104" width="312" height="110" rx="22" fill="#f0f9ff"/>
  <rect x="44" y="128" width="190" height="14" rx="7" fill="#9bd0ff"/>
  <rect x="44" y="152" width="120" height="10" rx="5" fill="#cfe7ff"/>
  <rect x="24" y="234" width="312" height="90" rx="18" fill="#fff7ed"/>
  <rect x="44" y="254" width="170" height="12" rx="6" fill="#fdb585"/>
  <rect x="44" y="276" width="130" height="10" rx="5" fill="#fde4cd"/>
  <rect x="24" y="344" width="312" height="110" rx="20" fill="#f8fafc"/>
  <rect x="44" y="368" width="200" height="14" rx="7" fill="#cbd5e1"/>
  <rect x="44" y="392" width="140" height="10" rx="5" fill="#e2e8f0"/>
  <rect x="24" y="480" width="148" height="130" rx="20" fill="#f1f5f9"/>
  <rect x="188" y="480" width="148" height="130" rx="20" fill="#f1f5f9"/>
</svg>
