<svg xmlns="http://www.w3.org/2000/svg" width="360" height="640" viewBox="0 0 360 640">
  <rect width="360" height="640" rx="28" fill="#ffffff"/>
  <rect x="24" y="24" width="312" height="56" rx="16" fill="#f1f5f9"/>
  <rect x="44" y="42" width="130" height="12" rx="6" fill="#cbd5e1"/>
  <circle cx="300" cy="52" r="10" fill="#22c55e"/>
  <rect x="24" y="96" width="312" height="130" rx="22" fill="#f0fdf4"/>
  <rect x="44" y="120" width="180" height="14" rx="7" fill="#86efac"/>
  <rect x="44" y="144" width="120" height="10" rx="5" fill="#d1fae5"/>
  <rect x="24" y="246" width="312" height="84" rx="18" fill="#f8fafc"/>
  <rect x="44" y="266" width="200" height="12" rx="6" fill="#cbd5e1"/>
  <rect x="44" y="288" width="140" height="10" rx="5" fill="#e2e8f0"/>
  <rect x="24" y="350" width="312" height="110" rx="20" fill="#ecfeff"/>
  <rect x="44" y="374" width="170" height="14" rx="7" fill="#99e0ff"/>
  <rect x="44" y="398" width="120" height="10" rx="5" fill="#d7f3ff"/>
  <rect x="24" y="480" width="312" height="72" rx="18" fill="#22c55e"/>
  <rect x="120" y="504" width="120" height="14" rx="7" fill="#ffffff"/>
</svg>
