<svg xmlns="http://www.w3.org/2000/svg" width="360" height="640" viewBox="0 0 360 640">
  <rect width="360" height="640" rx="28" fill="#ffffff"/>
  <rect x="24" y="24" width="312" height="56" rx="16" fill="#f3f4f8"/>
  <circle cx="52" cy="52" r="12" fill="#6e7dff"/>
  <rect x="80" y="40" width="160" height="12" rx="6" fill="#d7dbef"/>
  <rect x="24" y="104" width="312" height="140" rx="20" fill="#eef1ff"/>
  <rect x="44" y="124" width="180" height="16" rx="8" fill="#b9c1ff"/>
  <rect x="44" y="148" width="120" height="12" rx="6" fill="#d9def9"/>
  <rect x="24" y="268" width="312" height="92" rx="20" fill="#f7f8fc"/>
  <rect x="44" y="288" width="190" height="14" rx="7" fill="#cdd3ee"/>
  <rect x="44" y="310" width="120" height="12" rx="6" fill="#e1e5f7"/>
  <rect x="24" y="384" width="148" height="120" rx="20" fill="#f0f8ff"/>
  <rect x="188" y="384" width="148" height="120" rx="20" fill="#fff1f2"/>
  <rect x="24" y="528" width="312" height="60" rx="18" fill="#6e7dff"/>
  <rect x="120" y="548" width="120" height="16" rx="8" fill="#ffffff"/>
</svg>
