<svg xmlns="http://www.w3.org/2000/svg" width="360" height="640" viewBox="0 0 360 640">
  <rect width="360" height="640" rx="28" fill="#ffffff"/>
  <rect x="24" y="24" width="312" height="60" rx="18" fill="#f4f6fb"/>
  <rect x="44" y="44" width="140" height="12" rx="6" fill="#cdd4ea"/>
  <rect x="220" y="40" width="92" height="20" rx="10" fill="#6e7dff"/>
  <rect x="24" y="104" width="312" height="96" rx="18" fill="#f1f5f9"/>
  <rect x="44" y="124" width="200" height="14" rx="7" fill="#b8c0d9"/>
  <rect x="44" y="146" width="120" height="10" rx="5" fill="#d7ddeb"/>
  <rect x="24" y="220" width="312" height="120" rx="20" fill="#ecfeff"/>
  <rect x="44" y="244" width="160" height="14" rx="7" fill="#9bd9e8"/>
  <rect x="44" y="268" width="180" height="10" rx="5" fill="#d3f0f6"/>
  <rect x="24" y="360" width="312" height="84" rx="18" fill="#fef2f2"/>
  <rect x="44" y="380" width="150" height="12" rx="6" fill="#f7a6a6"/>
  <rect x="44" y="402" width="120" height="10" rx="5" fill="#fbd2d2"/>
  <rect x="24" y="468" width="148" height="140" rx="22" fill="#f8fafc"/>
  <rect x="188" y="468" width="148" height="140" rx="22" fill="#f8fafc"/>
</svg>
